<?xml version="1.0" encoding="UTF-8"?>
<svg id="Layer_1" data-name="Layer 1" xmlns="http://www.w3.org/2000/svg" xmlns:xlink="http://www.w3.org/1999/xlink" viewBox="0 0 1636.06 722.53">
  <defs>
    <style>
      .cls-1 {
        filter: url(#drop-shadow-1);
      }

      .cls-2 {
        filter: url(#drop-shadow-2);
      }
    </style>
    <filter id="drop-shadow-1" filterUnits="userSpaceOnUse">
      <feOffset dx="13" dy="6"/>
      <feGaussianBlur result="blur" stdDeviation="7"/>
      <feFlood flood-color="#000" flood-opacity=".35"/>
      <feComposite in2="blur" operator="in"/>
      <feComposite in="SourceGraphic"/>
    </filter>
    <filter id="drop-shadow-2" filterUnits="userSpaceOnUse">
      <feOffset dx="12" dy="4"/>
      <feGaussianBlur result="blur-2" stdDeviation="4"/>
      <feFlood flood-color="#000" flood-opacity=".35"/>
      <feComposite in2="blur-2" operator="in"/>
      <feComposite in="SourceGraphic"/>
    </filter>
  </defs>
  <g class="cls-1">
    <path d="M1634.61,376.71c1.93,0,1.93-3,0-3s-1.93,3,0,3h0Z"/>
    <path d="M52.48,447.08c-7,11.4-5.15,26.64,2.12,37.41,7.31,10.92,20.08,17.17,32.89,18.9,13.07,1.85,26.32-.96,38.51-5.85,36.92-15.48,68.19-44.02,88.94-77.93,26.58-42.24,28.45-87.57,35.72-135.46,9.15-61.66,21.7-123.83,50.3-179.84,9.61-18.6,21.09-36.38,34.97-52.08,4.61-5.22,9.46-10.2,14.59-14.86,0,0,1.4,1.28,1.4,1.28-54.15,71.66-66.34,162.83-82.65,248.64-13.16,68.33-17.86,119.59-70.05,172.14-23.51,23.34-57.9,46.13-91.21,50.52-21.08,2.75-45.34-4.34-56.91-23.27-7.31-12.21-8.44-28.68-.2-40.66,0,0,1.59,1.04,1.59,1.04h0Z"/>
    <path d="M216.17,0c1.44,47.03-2.11,96.69-25.47,138.63-5.79,10.45-13.24,19.98-20.86,29.09-11.33,13.79-23.98,27.35-39.59,36.63-21.14,12.84-50.6,16.84-71.31,.97-16.66-12.29-24.16-33.72-15.39-53.06,9.74-22.04,34.23-37.44,54.14-49.54,41.63-24.28,88.33-37.72,134.64-49.18C416.86,6.94,609.71,6.5,798.26,23.08c0,0-.08,1.9-.08,1.9-167.7,.95-336.1,3.98-501.61,32.89-71.09,13.53-145.31,25.72-207.44,64.84-17.15,11.16-39.11,26.16-38.98,48.74,.6,15.84,13.51,29.58,28.47,34.12,15.8,4.86,33.85,.93,48.3-7.04,15.28-8.42,27.63-20.87,39.2-33.97,7.76-8.8,14.99-17.93,20.86-28.07,11.82-20.2,18.76-43.02,22.67-66.04,3.99-23.17,5.04-46.82,4.63-70.39,0,0,1.9-.05,1.9-.05h0Z"/>
    <path d="M161.64,264.9c62.23-18.46,122.09-44.17,182.54-67.68,46.77-18.71,96.08-34.26,146.21-40.29,0,0,.15,.79,.15,.79-20.83,5.88-41.55,11.85-62.12,18.48-19.72,6.44-41.78,14.11-61.33,20.66-40.73,13.73-81.7,29.64-122.28,43.7-27.34,9.33-54.91,18.13-82.95,25.12,0,0-.21-.77-.21-.77h0Z"/>
    <path d="M479.03,350.95c12.87,0,12.89-20,0-20s-12.89,20,0,20h0Z"/>
    <path d="M251.2,371.63c-11.65,20.69-23.36,43.1-23.37,67.37-.01,15.84,7.61,31.43,20.78,40.37,19.95,13.53,45.93,14.04,68.96,9.88,62.86-12.17,119.08-55.02,147.33-112.42,0,0,4.77,2.16,4.77,2.16-5.25,13.04-10.59,26.33-11.76,40.33-1.56,16.28,4.72,35.31,20.28,42.57,9.47,4.18,19.84,3.48,30.22,2.53,3.67-.37,12.39-1.32,15.89-1.7,3.23-.52,12.42-1.93,15.79-2.46,4.83-.79,10.83-2.22,15.67-3.15,5.93-1.17,14.79-3.7,20.67-5.14,3.23-.99,11.93-3.67,15.27-4.7,4.7-1.47,10.38-3.72,15.06-5.34,5.72-2,14.1-5.74,19.74-7.99,5.44-2.64,13.88-6.33,19.2-9.2,4.3-2.33,9.86-5.08,14.08-7.52,2.74-1.66,11.03-6.47,13.75-8.1,5.01-3.36,12.87-8.2,17.72-11.77,3.88-2.88,9.07-6.43,12.88-9.41,2.21-1.81,10.2-8.11,12.47-9.95,4.62-4.1,11.44-9.85,15.86-14.15,1.8-1.78,5.8-5.6,7.63-7.4,3.39-3.12,7.96-8.3,11.02-11.5,0,0,3.63-3.88,3.63-3.88,1.17-1.29,2.29-2.6,3.38-3.94,9.6-12.04,20.3-29.02,13.93-44.39-8-17.43-35.04-20.12-51.69-16.08-20.11,4.65-37.3,17.58-50.98,32.68-19.24,20.85-29.99,47.04-39.65,73.46-22.47,62.76-38.39,104.75-100.51,138.34-38.63,20.67-81.61,30.71-124.05,39.8-70.43,15-141.98,24.53-213.87,28.88-57.55,3.44-119.1,4.66-172.53-21.08,0,0-18.78-9.05-18.78-9.05,437.8-114.2,892.26-170.8,1344.74-165.56,0,0,0,1.7,0,1.7-138.05,3.22-278.92,11.15-416.61,23.39-192.42,17.41-388.44,44.3-578.08,79.94-109.29,20.43-218.09,43.57-326.08,70.13,0,0,1.5-14.23,1.5-14.23,51.13,24.89,109.24,23.64,165.05,20.87,56.99-2.98,113.8-9.46,170.02-19.28,65.88-12.75,145.35-24.59,197.57-69.22,44.87-37.65,53.44-98.36,78.68-148.44,16.8-32.33,44.85-63.12,81.47-71.69,11.17-2.56,23.04-2.37,34.16,.48,34.8,9.5,37.92,38.77,19.15,65.95-4.02,6.08-9.03,11.87-14.11,17.09,0,0-7.49,7.89-7.49,7.89-2.08,2.16-5.59,5.42-7.81,7.56-5.93,5.9-13.93,12.61-20.28,18.09-6.59,5.18-14.73,11.72-21.64,16.42-6.64,4.95-15.64,10.52-22.62,15.01-5.41,3.04-13.36,7.93-18.89,10.71-2.44,1.24-7.21,3.75-9.64,4.99-3.06,1.67-11.41,5.42-14.72,6.95,0,0-4.93,2.27-4.93,2.27,0,0-5.03,2.03-5.03,2.03-3.64,1.45-11.57,4.78-15.15,5.94-2.57,.88-7.68,2.71-10.24,3.59-5.79,2.1-14.85,4.54-20.74,6.38-6.01,1.42-15.04,3.91-21.1,5.06-2.64,.5-8,1.59-10.64,2.1-3.72,.86-12.23,1.95-16.06,2.56,0,0-5.36,.79-5.36,.79,0,0-5.4,.54-5.4,.54-10.6,.96-22.32,2.65-32.96,.98-20.59-2.66-32.82-21.03-34.49-40.57-1.01-11.14,1.38-22.38,4.78-32.81,2.28-6.94,5.02-13.64,7.76-20.26,0,0,4.77,2.16,4.77,2.16-32.93,64.97-102.18,113.82-175.8,115.73-24.2,.02-51.67-8.65-62.89-31.9-11.35-22.83-3.12-49.28,7.29-70.83,3.52-7.31,7.45-14.41,11.55-21.39,0,0,1.47,.85,1.47,.85h0Z"/>
  </g>
  <g class="cls-2">
    <g>
      <path d="M204.71,615.39c-1.9,5.04-3.67,10.06-5.33,15.06-1.66,5.01-3.31,9.49-4.94,13.46-1.63,3.97-3.32,7.24-5.06,9.81-1.74,2.57-3.7,4-5.89,4.3-2.19,.3-4.28-.29-6.27-1.76-1.98-1.47-3.68-3.48-5.03-6-1.82-3.42-3.48-6.95-5.01-10.49-1.54-3.54-3.06-7.11-4.56-10.72-2.61-7.08-5.69-13.51-10.33-19.32-4.7,5.38-1.39,17.9-.59,24.54,1.07,8.89,3.06,17.68,5.67,26.13,2.61,8.45,5.56,16.69,8.84,24.73,.36,.93,.81,1.77,1.34,2.51,.53,.74,1.09,1.48,1.66,2.22,.57,.74,1.08,1.54,1.51,2.4,.43,.87,.71,1.78,.83,2.74,.17,1.28,.11,2.51-.18,3.69-.28,1.18-.7,2.27-1.25,3.26-.55,.99-1.22,1.82-2.01,2.47-.79,.65-1.62,1.03-2.48,1.15-2.51,.34-4.99-.8-7.44-3.4-2.45-2.6-4.79-6.06-7.03-10.38-2.24-4.32-4.33-9.2-6.27-14.64-1.94-5.44-3.68-10.8-5.2-16.09-1.52-5.28-2.78-10.19-3.77-14.73-.99-4.54-1.65-8.09-1.99-10.65-.35-2.67-.66-6-.94-9.98-.28-3.98-.38-8.15-.31-12.51,.07-4.35,.32-8.74,.74-13.14,.42-4.4,1.16-8.41,2.2-12.03,1.04-3.62,2.46-6.63,4.26-9.05,1.8-2.41,4.03-3.8,6.69-4.16,3.05-.41,6.22,.82,9.51,3.69,3.28,2.87,6.44,6.42,9.45,10.63,3.02,4.21,5.79,8.65,8.31,13.31,2.52,4.66,4.54,8.57,6.07,11.74,1.31-3.98,2.81-8.23,4.5-12.75,1.68-4.52,3.53-9.03,5.53-13.54,2-4.5,4.23-8.85,6.67-13.04,2.44-4.19,5.06-7.96,7.85-11.33,2.79-3.36,5.81-6.16,9.07-8.39,3.25-2.23,6.72-3.6,10.41-4.09,3.92-.53,7.35,.32,10.31,2.53,2.96,2.21,5.54,5.31,7.73,9.31,2.19,4,4.05,8.58,5.56,13.76,1.51,5.18,2.78,10.46,3.8,15.87,1.02,5.4,1.86,10.62,2.51,15.64,.65,5.02,1.22,9.4,1.71,13.14,.26,2.03,.6,4.78,1.02,8.26,.41,3.48,.87,7.28,1.36,11.39s.95,8.37,1.36,12.77c.41,4.4,.78,8.61,1.11,12.65,.33,4.03,.52,7.65,.57,10.84,.06,3.2-.04,5.63-.3,7.29-.46,3.21-1.45,5.87-2.97,7.98-1.52,2.1-3.53,3.33-6.04,3.66-2.11,.28-3.97-.04-5.57-.96-1.59-.93-2.94-2.24-4.04-3.94-1.1-1.7-1.98-3.7-2.64-6-.66-2.3-1.15-4.68-1.47-7.14-1-7.69-1.72-15.39-2.17-23.1-.45-7.71-1.17-15.41-2.17-23.1-.89-6.83-1.81-13.1-2.75-18.78-.94-5.68-1.98-10.49-3.13-14.41-1.15-3.92-2.41-6.74-3.79-8.45-1.38-1.72-3-2.04-4.85-.98-1.85,1.06-3.96,3.69-6.33,7.86-2.37,4.18-5.06,10.27-8.08,18.29Z"/>
      <path d="M391.06,604.16c-3.39-.74-7.35-1.18-11.67-1.04-4.32,.15-8.78,.42-13.34,.82-4.57,.4-9.09,.6-13.55,.6-4.46,0-8.55-.59-12.25-1.77-3.7-1.19-6.82-3.24-9.35-6.16s-4.17-7.21-4.9-12.87c-.82-6.3-.58-12.26,.72-17.86,1.3-5.61,3.27-10.82,5.91-15.63,2.64-4.81,5.84-9.18,9.59-13.11,3.75-3.93,7.64-7.3,11.65-10.12,4.01-2.82,8.04-5.1,12.08-6.84,4.03-1.74,7.7-2.83,10.99-3.27,2.19-.3,5.03-.41,8.5-.33,3.48,.08,6.95,.72,10.42,1.94,3.46,1.22,6.55,3.14,9.24,5.76,2.69,2.63,4.35,6.34,4.98,11.15,.25,1.92,.28,3.85,.09,5.77-.19,1.93-.56,3.66-1.12,5.2-.56,1.54-1.33,2.82-2.31,3.82-.99,1-2.15,1.59-3.48,1.77-.94,.13-1.95-.09-3.01-.65-1.07-.56-2.39-1.06-3.96-1.5-3.67-1.24-7.85-1.66-12.54-1.25-4.69,.41-9.33,1.53-13.91,3.34-4.59,1.81-8.79,4.26-12.61,7.32-3.83,3.07-6.68,6.54-8.57,10.36-2.19,4.42-1.67,7.78,1.61,10.05,3.28,2.27,9.24,3.43,17.85,3.47,5.5,.02,11.15,.26,16.95,.73s11.21,1.75,16.22,3.85c5.01,2.09,9.32,5.32,12.92,9.67,3.6,4.35,5.9,10.37,6.9,18.06,.75,5.77,.7,11.18-.16,16.24-.85,5.06-2.25,9.68-4.18,13.85-1.93,4.17-4.33,7.92-7.2,11.24-2.87,3.32-5.91,6.17-9.11,8.56-3.2,2.39-6.5,4.3-9.89,5.73-3.4,1.44-6.63,2.36-9.68,2.77-1.57,.21-3.53,.31-5.88,.3-2.35,0-4.86-.25-7.5-.7-2.65-.46-5.33-1.16-8.04-2.1-2.71-.94-5.21-2.21-7.49-3.8-2.28-1.59-4.21-3.59-5.8-5.98-1.59-2.39-2.59-5.19-3.01-8.4-.43-3.31-.18-6.42,.76-9.31,.94-2.9,2.54-4.5,4.81-4.8,.94-.13,2.1-.07,3.49,.18,1.39,.25,2.92,.5,4.58,.77,1.67,.27,3.41,.49,5.23,.68,1.82,.19,3.55,.17,5.19-.05,6.42-.86,11.98-1.83,16.66-2.89,4.68-1.06,8.62-2.35,11.75-3.86,3.66-1.78,6.31-4.19,7.91-7.18,1.6-2.98,2.21-6,1.81-9.04-.4-3.04-1.8-5.85-4.2-8.4-2.4-2.55-5.9-4.17-10.11-5.08Z"/>
      <path d="M472.65,614.69c-.75,1.62-1.52,3.16-2.33,4.63-.81,1.47-1.68,2.84-2.63,4.1-.95,1.27-2.01,2.31-3.18,3.12-1.17,.81-2.54,1.32-4.1,1.53-2.82,.38-5.32-.32-7.51-2.09-2.18-1.77-4.06-4.1-5.63-6.98-1.57-2.88-2.84-6.08-3.82-9.59-.97-3.51-1.66-6.81-2.07-9.91-.71-5.45-.81-10.49-.3-15.12,.51-4.63,1.61-8.72,3.3-12.26,1.69-3.54,4.01-6.41,6.95-8.6,2.94-2.19,6.49-3.56,10.64-4.12,1.97-.27,2.96-.4,4.94-.67,.59-1.6,1.25-3.07,1.99-4.42,.74-1.35,1.86-2.12,3.34-2.32,1.41-.19,2.57,.03,3.49,.67,.92,.64,1.67,1.54,2.27,2.71,.59,1.17,1.04,2.49,1.35,3.97,.31,1.48,.57,2.97,.76,4.46,.43,3.31,.74,6.56,.91,9.74,.18,3.18,.48,6.43,.91,9.74,.42,3.2,1,6.47,1.75,9.79,.75,3.32,1.72,6.48,2.91,9.47,.47,1.13,1.04,2.14,1.71,3.03,.67,.89,1.35,1.8,2.03,2.74,.68,.94,1.28,1.89,1.81,2.85,.52,.96,.87,2.08,1.04,3.36,.35,2.67-.08,4.74-1.28,6.2-1.2,1.47-2.71,2.32-4.51,2.56-1.41,.19-2.76,.04-4.06-.43-1.3-.48-2.56-1.15-3.79-2.02-1.23-.87-2.41-1.85-3.55-2.94-1.14-1.1-2.25-2.17-3.35-3.21Zm-9.99-16.1c.76-3.36,1.22-6.85,1.39-10.46,.17-3.61,.2-7.36,.09-11.26-.41-.05-.85-.08-1.32-.07-.48,0-.91,.04-1.3,.09-1.88,.25-3.35,1.05-4.41,2.39-1.06,1.34-1.86,3-2.4,4.97-.54,1.97-.82,4.1-.84,6.39-.02,2.29,.11,4.5,.39,6.63,.93,7.16,2.23,10.68,3.89,10.56,1.66-.12,3.17-3.2,4.53-9.25Z"/>
      <path d="M514.39,543.22c2.27-.31,4.17,.47,5.68,2.33,1.52,1.86,2.46,4.18,2.82,6.96,.49,3.74,.75,7.56,.78,11.47,.03,3.91,.29,7.73,.78,11.47,.6,4.59,1.36,9.08,2.29,13.46,.93,4.39,1.69,8.82,2.27,13.31,.24,1.82,.38,3.67,.43,5.57,.05,1.89-.13,3.63-.52,5.2-.39,1.57-1.06,2.89-2,3.93-.94,1.05-2.27,1.69-3.99,1.92-2.19,.3-4.11-.45-5.73-2.24-1.63-1.79-3.02-4.05-4.17-6.77-1.15-2.72-2.09-5.61-2.8-8.67-.72-3.05-1.22-5.7-1.51-7.95-.22-1.71-.5-4.12-.82-7.23-.33-3.11-.56-6.47-.72-10.09-.15-3.62-.21-7.31-.19-11.06,.03-3.75,.3-7.18,.81-10.3,.51-3.11,1.29-5.72,2.33-7.81,1.04-2.1,2.46-3.26,4.27-3.51Z"/>
      <path d="M564.24,592.74c.26,2.03,.63,4.05,1.09,6.05,.46,2,.82,3.97,1.07,5.89,.32,2.46,.07,4.69-.74,6.7-.81,2.01-2.09,3.13-3.81,3.36-2.04,.27-3.81-.65-5.33-2.79-1.51-2.13-2.81-4.73-3.88-7.79-1.08-3.06-1.93-6.23-2.55-9.52-.63-3.28-1.08-5.99-1.36-8.13-.49-3.74-.65-8.07-.49-12.98,.16-4.91,.74-9.63,1.74-14.17,1-4.54,2.49-8.46,4.45-11.76,1.96-3.31,4.51-5.17,7.64-5.59,2.82-.38,5.29,.49,7.39,2.59,2.11,2.11,4.18,4.55,6.21,7.31,1.27-4.3,3.12-8.03,5.54-11.18,2.42-3.15,5.31-4.95,8.68-5.4,2.43-.33,4.72,.32,6.89,1.93,2.16,1.61,4.13,3.84,5.89,6.7,1.77,2.86,3.37,6.15,4.81,9.87,1.44,3.72,2.69,7.49,3.75,11.31,1.06,3.82,1.94,7.59,2.67,11.3,.72,3.71,1.26,6.9,1.6,9.57,.24,1.82,.34,3.81,.3,5.99-.03,2.18-.28,4.25-.75,6.21-.46,1.96-1.16,3.66-2.09,5.09s-2.14,2.24-3.63,2.44c-2.51,.34-4.52-.4-6.03-2.2-1.51-1.81-2.68-4.09-3.52-6.86-.84-2.77-1.45-5.76-1.82-8.96-.38-3.21-.73-6.04-1.05-8.5-.82-6.3-1.84-10.92-3.06-13.85-1.22-2.93-2.38-4.33-3.47-4.18-1.1,.15-2.01,1.74-2.73,4.77-.72,3.03-1,7.31-.84,12.83,.07,2.38,.28,4.93,.64,7.66,.35,2.72,.75,5.74,1.18,9.05,.42,3.2,.13,6.04-.86,8.51-.99,2.47-2.63,3.86-4.9,4.16-1.41,.19-2.74-.36-3.98-1.67-1.24-1.3-2.39-3.05-3.43-5.24-1.04-2.2-2.01-4.73-2.9-7.6-.89-2.87-1.73-5.77-2.51-8.71-1.97-7.13-3.48-11.59-4.56-13.4-1.07-1.81-1.8-1.9-2.19-.28-.39,1.63-.47,4.49-.26,8.59,.22,4.1,.62,8.39,1.2,12.88Z"/>
      <path d="M665.82,588.69c-.75,1.62-1.52,3.16-2.33,4.63-.81,1.47-1.68,2.84-2.63,4.1-.95,1.27-2.01,2.31-3.18,3.12-1.17,.81-2.54,1.32-4.1,1.53-2.82,.38-5.32-.32-7.51-2.09-2.18-1.77-4.06-4.1-5.63-6.98-1.57-2.88-2.84-6.08-3.82-9.59-.97-3.51-1.66-6.81-2.07-9.91-.71-5.45-.81-10.49-.3-15.12,.51-4.63,1.61-8.72,3.3-12.26,1.69-3.54,4.01-6.41,6.95-8.6,2.94-2.19,6.49-3.56,10.64-4.12,1.97-.27,2.96-.4,4.94-.66,.59-1.6,1.25-3.07,1.99-4.42,.74-1.35,1.85-2.13,3.34-2.33,1.41-.19,2.58,.03,3.49,.67,.92,.64,1.68,1.54,2.27,2.71,.59,1.17,1.04,2.5,1.35,3.97,.31,1.48,.57,2.97,.76,4.46,.43,3.31,.73,6.56,.91,9.74,.18,3.18,.48,6.43,.91,9.74,.42,3.2,1,6.47,1.75,9.79,.75,3.32,1.72,6.48,2.91,9.47,.47,1.13,1.04,2.14,1.71,3.03,.67,.89,1.35,1.8,2.03,2.74,.68,.94,1.28,1.89,1.81,2.85,.52,.96,.87,2.08,1.04,3.37,.35,2.67-.08,4.74-1.28,6.2-1.2,1.47-2.71,2.32-4.51,2.56-1.41,.19-2.77,.04-4.06-.43-1.3-.48-2.56-1.15-3.79-2.02-1.23-.87-2.41-1.85-3.55-2.94-1.14-1.09-2.25-2.17-3.35-3.21Zm-9.99-16.1c.76-3.36,1.22-6.85,1.39-10.46,.17-3.61,.19-7.36,.09-11.26-.41-.05-.85-.08-1.32-.07-.48,0-.91,.04-1.3,.1-1.88,.26-3.35,1.05-4.41,2.39-1.06,1.34-1.86,3-2.4,4.97-.54,1.97-.82,4.1-.84,6.39-.02,2.28,.11,4.5,.39,6.63,.93,7.16,2.23,10.68,3.89,10.56,1.66-.12,3.17-3.2,4.53-9.25Z"/>
      <path d="M717.41,557.94c-.6,2.88-.64,6.23-.2,9.97,.45,3.74,1,8.13,1.65,13.14,.4,3.1,.1,5.94-.92,8.52-1.02,2.58-2.55,4.01-4.58,4.28-2.11,.28-3.79-.22-5.04-1.52-1.24-1.3-2.25-3.04-3.01-5.22s-1.31-4.57-1.65-7.19c-.34-2.62-.66-5.05-.95-7.29-.24-1.81-.53-4.25-.89-7.3-.36-3.05-.68-6.32-.98-9.81-.3-3.49-.47-7-.53-10.52-.06-3.52,.12-6.75,.53-9.69,.41-2.93,1.1-5.36,2.04-7.28,.95-1.92,2.28-3,4-3.23,1.25-.17,2.38,.39,3.38,1.66,1,1.28,1.88,2.63,2.62,4.05,1.27-1.26,2.59-2.44,3.96-3.55,1.37-1.11,2.92-1.78,4.64-2.01,2.11-.28,4.1,.29,5.96,1.72,1.86,1.43,3.61,3.37,5.24,5.81,1.63,2.44,3.18,5.28,4.63,8.51,1.46,3.23,2.84,6.49,4.14,9.79,1.31,3.3,2.56,6.5,3.76,9.6,1.2,3.1,2.42,5.7,3.65,7.82,.52,.91,.99,1.93,1.42,3.07,.43,1.14,.72,2.3,.87,3.47,.39,2.99-.03,5.6-1.25,7.83-1.22,2.23-2.74,3.47-4.54,3.71-2.27,.31-4.31-.48-6.11-2.36-1.8-1.88-3.45-4.32-4.96-7.32-1.51-3-2.9-6.24-4.19-9.71-1.29-3.47-2.51-6.67-3.69-9.53-1.91-4.61-3.71-6.78-5.27-6.46-1.55,.32-2.85,2.69-3.75,7.02Z"/>
      <path d="M894.13,568.22c-6.65,2.2-13.35,3.84-20.1,4.91-6.76,1.07-13.83,2-21.22,2.77-.34,2.33-.36,5.49-.08,9.47,.28,3.98,.45,7.88,.5,11.67,.06,3.8-.24,7.15-.9,10.06-.66,2.91-2.08,4.52-4.28,4.81-1.8,.24-3.36-.23-4.67-1.41-1.31-1.18-2.42-2.8-3.32-4.85-.9-2.05-1.65-4.4-2.23-7.03-.58-2.64-1.07-5.32-1.47-8.04-.39-2.72-.71-5.31-.95-7.78-.24-2.46-.48-4.6-.72-6.42-1.39-.25-2.92-.53-4.59-.85-1.67-.32-3.28-.86-4.81-1.63s-2.88-1.92-4.04-3.45c-1.16-1.53-1.91-3.63-2.25-6.3-.39-2.99-.09-5.09,.91-6.32,.99-1.22,2.31-2.02,3.93-2.41,1.62-.38,3.38-.51,5.27-.38,1.89,.13,3.54,.09,4.95-.1,.56-4.86,1.35-10.72,2.37-17.6,1.02-6.87,2.29-14.05,3.83-21.54,1.54-7.49,3.37-14.96,5.51-22.42,2.14-7.46,4.62-14.21,7.47-20.24,2.84-6.03,6.05-11.05,9.63-15.07,3.58-4.01,7.56-6.32,11.95-6.91,4.15-.56,7.84,.49,11.05,3.16,3.22,2.66,6.04,6.3,8.47,10.92,2.43,4.62,4.52,9.93,6.26,15.95,1.74,6.02,3.23,12.12,4.48,18.3,1.24,6.19,2.28,12.16,3.11,17.92,.83,5.76,1.52,10.72,2.06,14.88,.28,2.14,.72,3.71,1.33,4.71,.61,1,1.23,1.9,1.84,2.69,.62,.79,1.23,1.63,1.82,2.53,.6,.9,1,2.2,1.23,3.91,.22,1.71,.16,3.05-.19,4.02-.35,.97-.72,1.95-1.11,2.92-.39,.98-.72,2.14-.99,3.47-.26,1.34-.2,3.18,.18,5.52,.44,3.01,.66,4.51,1.1,7.52,.36,2.78,.71,6.02,1.03,9.72,.32,3.71,.33,7.29,.03,10.75-.31,3.46-1.05,6.48-2.23,9.02-1.18,2.55-3.11,4-5.77,4.36-1.88,.25-3.49-.16-4.82-1.22-1.33-1.07-2.49-2.6-3.46-4.59-.98-1.99-1.77-4.27-2.39-6.85-.61-2.58-1.13-5.2-1.56-7.86-.43-2.66-.81-5.3-1.15-7.91-.34-2.61-.67-4.88-1-6.79Zm-2.26-21.05c2.05-3.07-2.22-20.05-3.78-29.97-1.43-9.04-3.02-16.41-4.79-22.09-1.78-5.68-3.72-9.3-5.84-10.87-2.12-1.56-4.38-.28-6.79,3.85-1.24,2.12-2.49,4.9-3.76,8.33-1.27,3.43-2.47,7.18-3.62,11.24-1.14,4.07-2.24,8.32-3.3,12.75-1.06,4.44-1.97,8.74-2.74,12.92-.77,4.18-1.41,8.01-1.91,11.5-.5,3.49-.81,6.33-.92,8.52,2.59-.35,5.52-.74,8.81-1.19s6.64-.89,10.05-1.35c3.41-.46,6.73-.99,9.96-1.59,3.23-.6,8.16-1.34,8.64-2.06Z"/>
      <path d="M943.84,485.41c2.27-.31,4.17,.47,5.68,2.33,1.52,1.86,2.46,4.18,2.82,6.96,.49,3.74,.75,7.56,.78,11.47,.03,3.91,.29,7.73,.78,11.47,.6,4.59,1.36,9.08,2.29,13.46,.93,4.38,1.69,8.82,2.27,13.31,.24,1.82,.38,3.67,.43,5.57,.05,1.9-.13,3.63-.52,5.2-.39,1.57-1.06,2.89-2,3.93-.94,1.05-2.27,1.69-3.99,1.92-2.19,.29-4.1-.45-5.73-2.24s-3.02-4.05-4.17-6.77c-1.15-2.72-2.09-5.61-2.8-8.67-.72-3.05-1.22-5.7-1.51-7.95-.22-1.71-.5-4.12-.82-7.23-.33-3.11-.56-6.47-.72-10.09-.15-3.62-.21-7.31-.18-11.06,.03-3.75,.3-7.18,.81-10.3,.51-3.11,1.29-5.71,2.33-7.81,1.04-2.1,2.46-3.26,4.27-3.51Z"/>
      <path d="M1055.91,515.15c1.69,.1,4,.12,6.94,.05,2.94-.07,5.92,.13,8.92,.59,3.01,.46,5.68,1.41,8.02,2.83,2.34,1.42,3.71,3.69,4.11,6.78,.43,3.31-.25,5.88-2.05,7.69-1.8,1.82-4.03,3.18-6.7,4.08-2.67,.9-5.45,1.49-8.32,1.77-2.87,.28-5.13,.53-6.78,.75,.64,3.07,1.3,6.16,1.98,9.27,.68,3.11,1.23,6.22,1.63,9.32,.32,2.46,.56,5.09,.73,7.89,.17,2.8,.05,5.43-.35,7.87-.4,2.45-1.16,4.56-2.28,6.34-1.12,1.78-2.86,2.83-5.21,3.15-2.27,.31-4.31-.37-6.12-2.03-1.81-1.66-3.42-3.91-4.83-6.77-1.41-2.85-2.63-6.09-3.65-9.7-1.03-3.61-1.93-7.16-2.7-10.64-.77-3.48-1.42-6.76-1.94-9.85-.52-3.08-.93-5.47-1.23-7.17-.95-.52-1.93-1.02-2.94-1.48-1.01-.46-1.97-1.07-2.87-1.82-.89-.75-1.65-1.65-2.27-2.71-.62-1.06-1.03-2.39-1.24-3.99-.4-3.09,.02-5.49,1.28-7.18s2.87-2.89,4.85-3.59c-.18-1.41-.28-2.12-.46-3.53-1.28-9.51-2.14-19.21-2.72-28.73-.57-9.38-.54-19.22,.27-28.64-1.58-1.09-3.09-2.46-4.54-4.12-1.45-1.65-2.34-3.71-2.66-6.16-.33-2.56-.17-4.67,.49-6.34,.66-1.66,1.59-2.99,2.77-3.96,1.19-.97,2.55-1.7,4.08-2.18,1.53-.48,3.04-.82,4.53-1.02,1.17-.16,3.61-.27,7.31-.33,3.7-.06,7.96-.07,12.79-.01,4.83,.06,9.94,.16,15.34,.3,5.4,.14,10.42,.28,15.06,.42,4.64,.14,8.59,.31,11.84,.52,3.25,.21,5.18,.44,5.77,.69,3.56,1.59,5.64,4.73,6.25,9.43,.31,2.35,.05,4.37-.77,6.05-.82,1.69-1.98,3.15-3.49,4.38-1.51,1.24-3.25,2.26-5.22,3.07-1.97,.81-3.96,1.46-5.96,1.94-2.01,.49-3.93,.88-5.77,1.18-1.83,.3-3.34,.53-4.51,.69-5.4,.73-10.9,1.06-16.49,1-5.59-.06-11.13-.1-16.64-.12,.08,4.88,.35,9.73,.82,14.56,.47,4.82,1.02,9.64,1.64,14.45,.54,4.17,1.1,8.33,1.68,12.49,.58,4.16,1.1,8.33,1.57,12.5Z"/>
      <path d="M1105.45,500.82c.31-2.53,.87-4.81,1.68-6.83,.81-2.01,2.12-3.14,3.92-3.38,2.27-.31,3.96,.26,5.06,1.68,1.1,1.43,1.88,3.25,2.33,5.47,.45,2.22,.72,4.63,.82,7.23,.1,2.6,.27,4.85,.52,6.78,.38,2.88,.85,5.73,1.41,8.53,.56,2.8,1.03,5.65,1.41,8.53,.25,1.92-.18,3.64-1.3,5.15-1.12,1.51-2.34,2.35-3.68,2.53-1.88,.25-3.52-.23-4.91-1.46-1.39-1.22-2.57-2.89-3.52-4.99-.95-2.1-1.73-4.52-2.32-7.27-.6-2.74-1.03-5.49-1.31-8.22-.28-2.73-.41-5.32-.41-7.77,0-2.45,.1-4.45,.3-5.99Zm12.43-24.82c.29,2.24-.06,4.44-1.06,6.58-1,2.15-2.4,3.34-4.2,3.58-1.72,.23-3.44-.41-5.15-1.92-1.71-1.51-2.73-3.49-3.05-5.95-.36-2.77-.02-5.21,1.02-7.31,1.04-2.1,2.54-3.28,4.5-3.54,1.88-.25,3.59,.47,5.12,2.16,1.54,1.7,2.47,3.82,2.81,6.39Z"/>
      <path d="M1170.7,500.67c1.4,.36,2.94,.8,4.6,1.34,1.66,.54,3.26,1.3,4.78,2.29s2.84,2.25,3.96,3.78c1.12,1.54,1.82,3.42,2.11,5.67,.39,2.99-.21,5.33-1.78,7-1.57,1.68-3.3,2.64-5.18,2.9-1.33,.18-2.88-.07-4.64-.76-1.76-.69-3.59-1.56-5.48-2.6-1.89-1.05-3.76-2.1-5.61-3.16-1.85-1.06-3.46-1.92-4.82-2.61,.53,1.67,1.19,3.45,1.95,5.36,.77,1.91,1.25,3.66,1.46,5.26,.31,2.35-.03,4.35-1.01,6-.98,1.65-2.29,2.59-3.94,2.81-1.57,.21-3.05-.3-4.44-1.52-1.39-1.22-2.71-2.92-3.95-5.09-1.24-2.17-2.39-4.59-3.46-7.28-1.07-2.68-1.99-5.36-2.78-8.02-.78-2.66-1.44-5.21-1.95-7.64-.52-2.43-.87-4.39-1.07-5.89-.32-2.46-.56-6.01-.73-10.66-.17-4.65-.04-9.31,.39-13.99,.43-4.67,1.26-8.81,2.51-12.4,1.25-3.59,3.12-5.55,5.63-5.89,1.64-.22,3.17,.31,4.57,1.59,1.4,1.28,2.25,3.04,2.54,5.28,.15,1.18,.2,2.91,.14,5.2-.06,2.29-.15,4.8-.27,7.54-.12,2.73-.23,5.47-.31,8.19-.08,2.73-.03,5.17,.18,7.31,.89-1.1,1.93-2.6,3.12-4.5,1.19-1.9,2.44-3.75,3.76-5.56,1.32-1.81,2.65-3.4,3.98-4.77,1.33-1.38,2.59-2.14,3.76-2.3,2.19-.3,4.19,.36,5.99,1.96,1.8,1.6,2.9,3.9,3.29,6.89,.22,1.71,.1,3.39-.36,5.02-.46,1.64-1.09,3.24-1.88,4.82-.79,1.57-1.65,3.08-2.58,4.5-.93,1.43-1.76,2.74-2.48,3.92Z"/>
      <path d="M1237.26,464.65c.33,2.56,.04,4.45-.88,5.66-.92,1.21-2.11,2.16-3.57,2.85-1.46,.69-3.1,1.29-4.9,1.8-1.81,.51-3.41,1.38-4.8,2.6-1.4,1.22-2.48,3-3.25,5.33-.77,2.33-.89,5.58-.34,9.75,.2,1.5,.59,3.29,1.18,5.38,.59,2.09,1.22,4.32,1.89,6.67s1.23,4.73,1.7,7.11c.47,2.38,.69,4.55,.67,6.51-.02,1.96-.43,3.62-1.21,4.97-.78,1.35-2.11,2.16-3.99,2.41-1.96,.26-3.67-.38-5.15-1.92-1.47-1.54-2.76-3.62-3.86-6.25-1.1-2.62-2.03-5.62-2.79-8.99-.76-3.37-1.42-6.76-1.98-10.17-.56-3.4-1.02-6.63-1.38-9.68-.36-3.05-.67-5.59-.93-7.62-.7-5.34-1.08-9.34-1.14-11.99-.07-2.65,.27-4.52,1.01-5.6,.73-1.08,1.95-1.7,3.64-1.88,1.69-.17,3.91-.44,6.65-.81,2.66-.36,5.29-1.28,7.89-2.77,2.59-1.49,5.26-2.42,8-2.79,1.8-.24,3.42,.57,4.86,2.44,1.44,1.87,2.34,4.2,2.7,6.97Z"/>
      <path d="M1260.17,479.99c.31-2.53,.87-4.81,1.68-6.83,.81-2.01,2.12-3.14,3.92-3.38,2.27-.31,3.96,.26,5.06,1.68,1.1,1.42,1.88,3.25,2.33,5.47,.45,2.22,.72,4.63,.82,7.23s.27,4.85,.52,6.78c.38,2.88,.85,5.73,1.41,8.53,.56,2.8,1.03,5.65,1.41,8.53,.25,1.92-.18,3.64-1.3,5.15-1.12,1.51-2.34,2.35-3.68,2.53-1.88,.25-3.52-.23-4.91-1.46-1.39-1.22-2.57-2.89-3.52-4.99-.95-2.09-1.73-4.52-2.32-7.27-.6-2.74-1.03-5.49-1.31-8.22-.28-2.73-.41-5.32-.41-7.77,0-2.44,.1-4.44,.3-5.99Zm12.43-24.82c.29,2.24-.06,4.44-1.06,6.58-1,2.15-2.4,3.34-4.2,3.58-1.72,.23-3.44-.41-5.15-1.92-1.71-1.51-2.72-3.49-3.05-5.95-.36-2.77-.02-5.21,1.02-7.31,1.04-2.09,2.54-3.28,4.5-3.54,1.88-.25,3.59,.47,5.12,2.16,1.54,1.69,2.47,3.82,2.8,6.39Z"/>
    </g>
  </g>
</svg>